<svg width="60" height="36" viewBox="0 0 60 36" fill="none" xmlns="http://www.w3.org/2000/svg">
<g clip-path="url(#clip0_115_3)">
<g filter="url(#filter0_d_115_3)">
<path d="M45.5696 0.857178H15.1899C7.22022 0.857178 0.759521 8.14854 0.759521 17.1429C0.759521 26.1372 7.22022 33.4286 15.1899 33.4286H45.5696C53.5393 33.4286 60 26.1372 60 17.1429C60 8.14854 53.5393 0.857178 45.5696 0.857178Z" fill="url(#paint0_linear_115_3)"/>
</g>
<path d="M34.4205 10.2253C34.5648 9.97274 34.8847 10.0417 34.9496 10.3393L35.1789 11.3911C35.2053 11.5121 35.281 11.6078 35.379 11.6442L36.2314 11.9608C36.4725 12.0503 36.5178 12.4435 36.3062 12.6109L35.5583 13.2023C35.4723 13.2703 35.4212 13.3879 35.4231 13.513L35.4401 14.6013C35.4449 14.9092 35.1528 15.0833 34.9572 14.8891L34.2657 14.2028C34.1862 14.124 34.0789 14.1008 33.9821 14.1418L33.1402 14.4979C32.902 14.5986 32.6763 14.313 32.7669 14.0257L33.0875 13.01C33.1243 12.8932 33.1091 12.7614 33.0474 12.6615L32.51 11.7933C32.3581 11.5477 32.5106 11.1971 32.7623 11.2136L33.6519 11.2723C33.7542 11.2789 33.8521 11.2207 33.9107 11.118L34.4205 10.2253Z" fill="url(#paint1_linear_115_3)"/>
<path d="M27.6992 5.34099C27.7343 5.27944 27.8123 5.29624 27.8281 5.36876L27.884 5.62513C27.8904 5.65461 27.9089 5.67794 27.9327 5.68681L28.1405 5.76397C28.1993 5.7858 28.2103 5.88163 28.1587 5.92241L27.9765 6.06657C27.9555 6.08315 27.9431 6.11179 27.9435 6.1423L27.9477 6.40755C27.9488 6.48259 27.8777 6.52502 27.83 6.4777L27.6614 6.31044C27.6421 6.29119 27.6159 6.28556 27.5923 6.29555L27.3871 6.38233C27.3291 6.40687 27.274 6.33727 27.2961 6.26724L27.3743 6.0197C27.3832 5.99124 27.3795 5.95911 27.3645 5.93477L27.2335 5.72316C27.1965 5.66329 27.2336 5.57784 27.295 5.58188L27.5118 5.59616C27.5367 5.5978 27.5606 5.58358 27.5749 5.55856L27.6992 5.34099Z" fill="url(#paint2_linear_115_3)"/>
<path d="M42.9532 12.8542C42.9895 12.673 43.1828 12.6265 43.2727 12.7774L43.5905 13.3108C43.6271 13.3721 43.6869 13.406 43.7489 13.4005L44.2874 13.3518C44.4397 13.338 44.5356 13.5482 44.4459 13.6993L44.1289 14.2334C44.0925 14.2948 44.0846 14.3749 44.1081 14.4452L44.3124 15.0559C44.3701 15.2286 44.2362 15.405 44.0909 15.3475L43.5772 15.1442C43.5181 15.1208 43.4533 15.1364 43.4059 15.1854L42.9936 15.6115C42.8771 15.7321 42.6983 15.6308 42.6982 15.4442L42.6977 14.7845C42.6977 14.7086 42.6655 14.6381 42.6127 14.5982L42.1536 14.2508C42.0238 14.1525 42.0473 13.9136 42.1925 13.8558L42.7059 13.6514C42.765 13.6279 42.8099 13.5687 42.8247 13.495L42.9532 12.8542Z" fill="url(#paint3_linear_115_3)"/>
<path d="M49.0434 8.60317C49.0638 8.50167 49.172 8.47563 49.2224 8.56014L49.4003 8.85886C49.4208 8.89323 49.4543 8.91225 49.489 8.90908L49.7906 8.88183C49.8759 8.87411 49.9297 8.99188 49.8794 9.07648L49.7019 9.37563C49.6815 9.41 49.6771 9.45491 49.6902 9.49417L49.8046 9.83625C49.837 9.93303 49.762 10.0319 49.6806 9.99963L49.3929 9.88571C49.3598 9.8726 49.3235 9.88134 49.297 9.90877L49.0661 10.1475C49.0008 10.2149 48.9007 10.1583 48.9006 10.0538L48.9003 9.68428C48.9003 9.64177 48.8823 9.60234 48.8527 9.57997L48.5956 9.3854C48.5229 9.33037 48.536 9.19648 48.6174 9.16417L48.9049 9.04966C48.938 9.03646 48.9632 9.00337 48.9714 8.96205L49.0434 8.60317Z" fill="url(#paint4_linear_115_3)"/>
<path d="M39.9821 4.42634C40.0806 4.37484 40.1833 4.48746 40.152 4.61254L40.0414 5.05465C40.0288 5.1055 40.0384 5.16077 40.0671 5.20079L40.3163 5.54867C40.3868 5.64708 40.3309 5.80126 40.2238 5.80356L39.8455 5.81172C39.802 5.81267 39.762 5.84101 39.7397 5.88668L39.5459 6.28373C39.4911 6.39605 39.3538 6.37872 39.3189 6.25507L39.1957 5.818C39.1815 5.76773 39.1471 5.72998 39.1046 5.71819L38.7357 5.61569C38.6313 5.5867 38.6024 5.42181 38.6879 5.34309L38.99 5.0648C39.0247 5.03279 39.0435 4.98112 39.0395 4.92816L39.0053 4.46777C38.9956 4.33752 39.115 4.25295 39.2027 4.32794L39.5127 4.59303C39.5484 4.62352 39.5944 4.62933 39.6344 4.60839L39.9821 4.42634Z" fill="url(#paint5_linear_115_3)"/>
<g filter="url(#filter1_d_115_3)">
<path d="M14.0886 29.8094C19.8142 29.8094 24.4557 24.1384 24.4557 17.1428C24.4557 10.1471 19.8142 4.47607 14.0886 4.47607C8.36306 4.47607 3.72156 10.1471 3.72156 17.1428C3.72156 24.1384 8.36306 29.8094 14.0886 29.8094Z" fill="url(#paint6_linear_115_3)"/>
<path d="M14.0888 27.6379C18.8328 27.6379 22.6786 22.939 22.6786 17.1427C22.6786 11.3463 18.8328 6.64746 14.0888 6.64746C9.34472 6.64746 5.4989 11.3463 5.4989 17.1427C5.4989 22.939 9.34472 27.6379 14.0888 27.6379Z" fill="url(#paint7_linear_115_3)"/>
</g>
</g>
<defs>
<filter id="filter0_d_115_3" x="-7.24048" y="-1.14282" width="75.2405" height="48.5715" filterUnits="userSpaceOnUse" color-interpolation-filters="sRGB">
<feFlood flood-opacity="0" result="BackgroundImageFix"/>
<feColorMatrix in="SourceAlpha" type="matrix" values="0 0 0 0 0 0 0 0 0 0 0 0 0 0 0 0 0 0 127 0" result="hardAlpha"/>
<feOffset dy="6"/>
<feGaussianBlur stdDeviation="4"/>
<feComposite in2="hardAlpha" operator="out"/>
<feColorMatrix type="matrix" values="0 0 0 0 0 0 0 0 0 0 0 0 0 0 0 0 0 0 0.25 0"/>
<feBlend mode="normal" in2="BackgroundImageFix" result="effect1_dropShadow_115_3"/>
<feBlend mode="normal" in="SourceGraphic" in2="effect1_dropShadow_115_3" result="shape"/>
</filter>
<filter id="filter1_d_115_3" x="-0.278442" y="-0.523926" width="32.7341" height="37.3333" filterUnits="userSpaceOnUse" color-interpolation-filters="sRGB">
<feFlood flood-opacity="0" result="BackgroundImageFix"/>
<feColorMatrix in="SourceAlpha" type="matrix" values="0 0 0 0 0 0 0 0 0 0 0 0 0 0 0 0 0 0 127 0" result="hardAlpha"/>
<feOffset dx="2" dy="1"/>
<feGaussianBlur stdDeviation="3"/>
<feColorMatrix type="matrix" values="0 0 0 0 0 0 0 0 0 0 0 0 0 0 0 0 0 0 0.25 0"/>
<feBlend mode="normal" in2="BackgroundImageFix" result="effect1_dropShadow_115_3"/>
<feBlend mode="normal" in="SourceGraphic" in2="effect1_dropShadow_115_3" result="shape"/>
</filter>
<linearGradient id="paint0_linear_115_3" x1="31.1203" y1="2.12385" x2="30.0153" y2="33.4158" gradientUnits="userSpaceOnUse">
<stop stop-color="#2B4485"/>
<stop offset="1" stop-color="#AFCAFF"/>
</linearGradient>
<linearGradient id="paint1_linear_115_3" x1="34.7855" y1="9.58625" x2="33.4998" y2="15.5565" gradientUnits="userSpaceOnUse">
<stop stop-color="#ADDDFF"/>
<stop offset="1" stop-color="#EDF6FF" stop-opacity="0"/>
</linearGradient>
<linearGradient id="paint2_linear_115_3" x1="27.7881" y1="5.18523" x2="27.4747" y2="6.64036" gradientUnits="userSpaceOnUse">
<stop stop-color="#ADDDFF"/>
<stop offset="1" stop-color="#EDF6FF" stop-opacity="0"/>
</linearGradient>
<linearGradient id="paint3_linear_115_3" x1="43.0452" y1="12.3955" x2="43.9096" y2="15.988" gradientUnits="userSpaceOnUse">
<stop stop-color="#ADDDFF"/>
<stop offset="1" stop-color="#EDF6FF" stop-opacity="0"/>
</linearGradient>
<linearGradient id="paint4_linear_115_3" x1="49.0949" y1="8.34627" x2="49.579" y2="10.3584" gradientUnits="userSpaceOnUse">
<stop stop-color="#ADDDFF"/>
<stop offset="1" stop-color="#EDF6FF" stop-opacity="0"/>
</linearGradient>
<linearGradient id="paint5_linear_115_3" x1="40.2312" y1="4.29602" x2="38.4833" y2="5.89043" gradientUnits="userSpaceOnUse">
<stop stop-color="#ADDDFF"/>
<stop offset="1" stop-color="#EDF6FF" stop-opacity="0"/>
</linearGradient>
<linearGradient id="paint6_linear_115_3" x1="14.0886" y1="4.4761" x2="14.0886" y2="29.8094" gradientUnits="userSpaceOnUse">
<stop stop-color="#D6E9FF"/>
<stop offset="1" stop-color="#CDE4FF"/>
</linearGradient>
<linearGradient id="paint7_linear_115_3" x1="14.0888" y1="6.64744" x2="14.0888" y2="27.6379" gradientUnits="userSpaceOnUse">
<stop stop-color="#CEE5FF"/>
<stop offset="0.9999" stop-color="#EDF6FF"/>
<stop offset="1" stop-color="#F1F9FF"/>
</linearGradient>
<clipPath id="clip0_115_3">
<rect width="60" height="36" fill="white"/>
</clipPath>
</defs>
</svg>
